<svg width="18" height="23" viewBox="0 0 18 23" fill="none" xmlns="http://www.w3.org/2000/svg">
<path d="M6 10.5C5.37352 8.91882 8.02725 9.38951 8.14889 8.15756C8.28935 6.73479 8.79109 5.5473 9.28016 4.53687C9.38453 4.32126 9.48485 4.12051 9.58104 3.92792C9.71735 3.65526 9.84539 3.39896 9.96516 3.14006C10.1646 2.70905 10.3126 2.32843 10.3874 1.9748C10.4609 1.62707 10.4614 1.31651 10.3744 1.01862C10.2872 0.720313 10.1022 0.399217 9.75017 0.047262C9.29064 -0.0718122 8.78068 0.0327267 8.39838 0.376639L3.86118 4.45829C3.60811 4.68596 3.44198 4.99447 3.3912 5.33107L3 7.92463C3.61515 8.46838 4.77673 8.80678 5.7002 11C5.7826 11.1957 6.1981 11 6 10.5Z" fill="#5D34B0"/>
<path d="M2.78739 9C2.7646 9.09847 2.73253 9.19465 2.69158 9.28714L0.137121 15.0541C-0.125247 15.6464 -0.00438368 16.3409 0.442117 16.8066L4.4621 21C6.51496 17.9325 6.21566 15.0466 5.27796 12.7907C4.56696 11.0803 3.48935 9.74158 2.78739 9Z" fill="#5D34B0"/>
<path d="M6 21.4253C6.06613 21.4359 6.13319 21.4422 6.20073 21.4442C6.9169 21.4657 8.12134 21.528 9.09812 21.708C9.89497 21.8548 11.4746 22.2964 12.7744 22.6764C13.7663 22.9663 14.7884 22.1742 14.9324 21.1508C15.0372 20.4045 14.6372 19.2744 15 18.5005C14.3856 16.7871 13.3195 15.7068 12.5 15.0003C11.683 14.2959 10 17 8.93945 16.7371C8.5 16.5005 8 16.2371 7 16.0005C7.48809 18.0339 7.64395 18.9484 6 21.4253Z" fill="#5D34B0"/>
<path d="M15.3682 17.3149C16.1837 16.0842 16.7646 15.127 17.0712 14.6082C17.2245 14.3486 17.1968 14.0231 17.0151 13.7825C16.5419 13.1554 15.6365 11.8811 15.1431 10.7011C14.6359 9.48807 14.5602 7.60464 14.5559 6.6873C14.5542 6.33859 14.4437 5.99802 14.228 5.72401L11.2966 2C11.2864 2.16786 11.2622 2.33438 11.2273 2.49937C11.1297 2.96044 10.9457 3.41943 10.7358 3.87306C10.6128 4.13895 10.4706 4.42379 10.327 4.71156C10.2314 4.90308 10.1351 5.09595 10.0434 5.28532C9.56956 6.26445 9.6232 6.25137 9.5 7.5C9.38569 8.65732 10.5818 8.82227 11.5816 10.3223C12.0818 11.3223 12.0031 10.7011 12.0816 11.8223C12.0816 12.8223 12.178 13.264 13.1549 14.1061C13.9945 14.83 14.7532 15.8672 15.3682 17.3149Z" fill="#5D34B0"/>
<path d="M7 11.2622V15.2623C7 15.2623 7.10156 15.2623 7.24987 15.2623C7.39817 15.2623 7.49974 15.2623 7.49974 15.2623L7.5 13.5157C7.5 13.5157 7.5 13.3475 7.5 12.7617C7.42181 12.478 7.42201 11.7839 7.5 11.5002C7.59303 11.1618 7.69521 10.6741 8 10.5002C8.33916 10.3066 8.58411 10.4379 8.9668 10.5157C9.4668 10.6174 9.82275 10.7405 9.86328 11.2617C9.89133 11.6223 9.7558 12.0059 9.5 12.2617C9 12.7617 8.5 12.7617 8 12.7617C7.80474 12.7617 7.69526 12.7617 7.5 12.7617C7.5 13.3475 7.5 13.5157 7.5 13.5157L9.86962 15.2623C9.86962 15.2623 9.86962 15.3125 10.5 15.2623C10.7614 15.2414 10.5 15 10.5 15L8 13.2617C8 13.2617 9.36328 13.2617 9.86328 12.7617C10.3633 12.2617 10.5 11.5251 10.5 11.2617C10.5 10.7617 10 10.2629 9.53893 10.1173C9.07786 9.97167 7.85328 9.90579 7.49974 10.2592C7 10.7588 7 11.2622 7 11.2622Z" fill="#5D34B0"/>
<path d="M7.5 12.7617C7.42181 12.478 7.42201 11.7839 7.5 11.5002C7.59303 11.1618 7.69521 10.6741 8 10.5002C8.33916 10.3066 8.58411 10.4379 8.9668 10.5157C9.4668 10.6174 9.82275 10.7405 9.86328 11.2617C9.89133 11.6223 9.7558 12.0059 9.5 12.2617C9 12.7617 8.5 12.7617 8 12.7617C7.80474 12.7617 7.69526 12.7617 7.5 12.7617ZM7.5 12.7617C7.5 13.3475 7.5 13.5157 7.5 13.5157M7.5 13.5157L7.49974 15.2623C7.49974 15.2623 7.39817 15.2623 7.24987 15.2623C7.10156 15.2623 7 15.2623 7 15.2623V11.2622C7 11.2622 7 10.7588 7.49974 10.2592C7.85328 9.90579 9.07786 9.97167 9.53893 10.1173C10 10.2629 10.5 10.7617 10.5 11.2617C10.5 11.5251 10.3633 12.2617 9.86328 12.7617C9.36328 13.2617 8 13.2617 8 13.2617L10.5 15C10.5 15 10.7614 15.2414 10.5 15.2623C9.86962 15.3125 9.86962 15.2623 9.86962 15.2623L7.5 13.5157Z" stroke="#5D34B0" stroke-width="0.1"/>
</svg>
